<?xml version="1.0" encoding="UTF-8" standalone="no"?>
<svg width="92px" height="58px" viewBox="0 0 92 58" version="1.1" xmlns="http://www.w3.org/2000/svg" xmlns:xlink="http://www.w3.org/1999/xlink" xmlns:sketch="http://www.bohemiancoding.com/sketch/ns">
    <!-- Generator: Sketch 3.3.2 (12043) - http://www.bohemiancoding.com/sketch -->
    <title>Slice 1</title>
    <desc>Created with Sketch.</desc>
    <defs></defs>
    <g id="Page-1" stroke="none" stroke-width="1" fill="none" fill-rule="evenodd" sketch:type="MSPage">
        <g id="4days" sketch:type="MSLayerGroup" transform="translate(0.000000, -3.000000)" fill="#001F3B">
            <g id="Group" transform="translate(0.000000, 47.000000)" sketch:type="MSShapeGroup">
                <path d="M0.8,1.5 C0.8,1.5 -0.5,6.2 42.8,3.8 C63.9,2.6 86.7,0.4 86.3,6.6 C86,11.2 58,14.4 47.3,5.7 C54.4,15.3 86.2,15 86.7,6.7 C87.1,-0.5 66.1,0.4 45,2.1 C8.2,4.9 0.8,1.5 0.8,1.5 L0.8,1.5 Z" id="Shape"></path>
                <path d="M70,13.1 C57.1,13.1 49.6,9.2 47.2,5.8 C47.1,5.7 47.1,5.6 47.2,5.5 C47.3,5.4 47.4,5.4 47.5,5.5 C51.8,9 59.5,10.9 68.7,10.9 C76.8,10.9 86,9 86.2,6.6 C86.2,6 86,5.5 85.6,5.1 C84.1,3.5 79.6,2.7 71.8,2.7 C65.7,2.7 58.3,3.2 50.5,3.6 C48,3.8 45.4,3.9 42.9,4.1 C34.6,4.6 27.4,4.8 21.4,4.8 C5.2,4.8 1.5,3.1 0.8,2.1 C0.6,1.8 0.6,1.6 0.6,1.5 C0.6,1.4 0.7,1.4 0.7,1.3 L0.9,1.3 C0.9,1.3 4.7,2.9 19.3,2.9 C26.5,2.9 35.1,2.5 45,1.7 C52.5,1.1 61.1,0.5 68.3,0.5 C78.1,0.5 83.8,1.6 86,3.9 C86.7,4.7 87,5.5 87,6.5 C86.7,11.1 78.2,13.1 70,13.1 L70,13.1 Z M49.1,7.2 C53.6,11 62.5,12.7 70,12.7 C78.9,12.7 85.4,10.5 86.4,7.4 C84.9,9.9 76.5,11.5 68.7,11.5 C60.6,11.4 53.6,9.9 49.1,7.2 L49.1,7.2 Z M71.7,2.2 C79.7,2.2 84.2,3 85.8,4.7 C85.9,4.8 86,4.9 86.1,5 C86,4.8 85.8,4.5 85.6,4.3 C83.5,2.1 77.9,1.1 68.2,1.1 C61,1.1 52.4,1.7 44.9,2.3 C35,3.1 26.4,3.5 19.2,3.5 C7.5,3.5 2.8,2.5 1.3,2 C2.2,2.8 6,4.3 21.4,4.3 C27.4,4.3 34.6,4.1 42.8,3.6 C45.3,3.5 47.9,3.3 50.4,3.1 C58.2,2.6 65.6,2.2 71.7,2.2 L71.7,2.2 Z" id="Shape"></path>
            </g>
            <g id="Group" transform="translate(11.000000, 16.000000)" sketch:type="MSShapeGroup">
                <path d="M19.1,11.3 C19.1,10.9 19.1,10.5 19.2,10.1 C19.2,9.7 19.2,9.3 19.3,8.9 L19.3,7.9 L19.3,7.3 C19.3,7 19.1,6.9 18.9,6.9 C18.6,7 18.3,7.3 18,8 C17.7,8.7 17.1,10.2 16.4,12.3 C16,13.5 15.6,14.8 15.1,16.2 C14.7,17.6 14.2,19 13.6,20.4 C13.1,21.8 12.4,23.1 11.8,24.4 C11.1,25.7 10.3,26.9 9.4,27.9 C8.5,29 7.5,29.9 6.3,30.6 C5.1,31.3 3.8,31.8 2.3,32.1 L1.8,32.1 L1.3,32.1 L1.6,30.7 C2.2,30.7 2.7,30.6 3,30.6 C3.8,30.5 4.5,30.3 5.1,30 C5.8,29.8 6.4,29.4 7,29.1 C7.6,28.7 8.1,28.3 8.7,27.7 C9.2,27.2 9.7,26.5 10.2,25.8 C10.5,25.4 10.8,24.9 11.1,24.3 C11.4,23.7 11.7,23.1 12,22.5 C12.3,21.9 12.6,21.2 12.8,20.6 C13.1,19.9 13.3,19.3 13.5,18.6 C13.7,18 13.9,17.4 14.1,16.8 C14.3,16.2 14.5,15.7 14.6,15.3 L15.7,12 C16.6,9.4 17.3,7.6 17.8,6.7 C18.3,5.7 18.9,5.2 19.6,5.1 C19.9,5 20.2,5.1 20.4,5.3 C20.6,5.5 20.8,5.7 20.8,6.1 L20.8,6.7 L20.8,7.5 L19.8,28.4 L18.2,28.7 L19.1,11.3 L19.1,11.3 Z" id="Shape"></path>
                <path d="M1.2,32.7 C1.1,32.7 1,32.7 1,32.6 C0.9,32.5 0.9,32.4 0.9,32.3 L1.2,30.9 C1.2,30.8 1.4,30.7 1.5,30.7 C2.1,30.7 2.5,30.6 2.8,30.6 C3.6,30.5 4.3,30.3 4.9,30.1 C5.5,29.9 6.1,29.6 6.7,29.2 C7.3,28.8 7.8,28.4 8.3,27.9 C8.8,27.4 9.3,26.8 9.8,26.1 C10.1,25.7 10.4,25.2 10.7,24.6 C11,24 11.3,23.4 11.6,22.8 C11.9,22.2 12.2,21.5 12.4,20.9 C12.7,20.2 12.9,19.6 13.1,19 C13.3,18.4 13.5,17.8 13.7,17.2 C13.9,16.6 14.1,16.1 14.2,15.7 L15.3,12.4 C16.2,9.8 16.9,8 17.4,7 C18,6 18.7,5.4 19.4,5.2 C19.8,5.1 20.2,5.2 20.5,5.4 C20.8,5.6 21,5.9 21,6.4 C21,6.6 21,6.8 21.1,7 L21.1,7.8 L20.1,28.7 C20.1,28.9 20,29 19.8,29 L18.2,29.3 C18.1,29.3 18,29.3 17.9,29.2 C17.8,29.1 17.8,29 17.8,28.9 L18.6,11.4 C18.6,11 18.6,10.6 18.7,10.2 L18.8,9 L18.8,8 L18.8,7.5 L18.8,7.4 C18.7,7.4 18.4,7.5 18.1,8.4 C17.8,9.1 17.3,10.5 16.5,12.7 C16.1,13.9 15.7,15.2 15.2,16.6 C14.8,18 14.3,19.4 13.7,20.8 C13.2,22.2 12.5,23.6 11.8,24.9 C11.1,26.2 10.3,27.4 9.4,28.5 C8.5,29.6 7.4,30.5 6.2,31.3 C5,32.1 3.6,32.6 2.1,32.8 C1.9,32.8 1.8,32.8 1.6,32.9 C1.6,32.6 1.4,32.7 1.2,32.7 L1.2,32.7 L1.2,32.7 Z M1.8,31.3 L1.6,32 L1.7,32 L2.1,32 C3.6,31.8 4.9,31.3 6,30.6 C7.1,29.9 8,29.1 8.8,28.2 L8.7,28.3 C8.2,28.8 7.6,29.3 7,29.7 C6.4,30.1 5.8,30.4 5.1,30.7 C4.4,31 3.7,31.1 2.9,31.3 C2.7,31.2 2.3,31.2 1.8,31.3 L1.8,31.3 Z M18.9,6.7 C19.3,6.7 19.5,6.9 19.6,7.3 L19.6,7.9 L19.6,8.9 L19.5,10.1 C19.5,10.5 19.5,10.9 19.4,11.3 L18.6,28.4 L19.5,28.2 L20.5,7.5 L20.5,6.7 L20.5,6.2 C20.5,6 20.4,5.8 20.2,5.6 C20,5.5 19.8,5.4 19.6,5.5 C19,5.6 18.5,6.1 18,7 C17.9,7.1 17.9,7.2 17.8,7.3 C18.1,6.9 18.4,6.6 18.7,6.6 C18.8,6.7 18.9,6.7 18.9,6.7 L18.9,6.7 Z" id="Shape"></path>
                <path d="M28.2,20.4 C28.5,20.4 28.7,20.3 28.9,20.4 C29.1,20.4 29.3,20.5 29.5,20.6 C29.7,20.7 29.8,20.9 29.9,21.1 C30,21.3 30.1,21.6 30.1,21.9 C30.2,22.5 30.1,23.1 30,23.7 C29.8,24.4 29.5,25 29.2,25.5 C28.8,26.1 28.4,26.6 27.9,27 C27.4,27.4 26.9,27.7 26.4,27.7 C25.8,27.8 25.3,27.7 24.9,27.4 C24.5,27.1 24.3,26.7 24.2,26.2 C24.1,25.8 24.1,25.3 24.1,24.6 L24.3,18.4 L25.8,17.4 L25.2,23.6 C25.7,22.6 26.2,21.8 26.7,21.3 C27.2,20.8 27.7,20.5 28.2,20.4 M25.2,25.8 C25.3,26.2 25.4,26.5 25.7,26.7 C26,26.9 26.4,27 26.8,26.9 C27.1,26.9 27.4,26.7 27.7,26.5 C28,26.3 28.2,26 28.4,25.6 C28.6,25.2 28.8,24.7 28.9,24.2 C29,23.7 29,23.1 28.9,22.4 C28.8,22 28.7,21.7 28.6,21.5 C28.4,21.3 28.2,21.2 27.9,21.3 C27.7,21.3 27.4,21.4 27.2,21.6 C27,21.8 26.7,22 26.5,22.3 C26.3,22.6 26,22.9 25.8,23.4 C25.6,23.8 25.4,24.3 25.2,24.9 C25.1,25.1 25.2,25.5 25.2,25.8" id="Shape"></path>
                <path d="M25.9,28 C25.4,28 25,27.9 24.7,27.6 C24.2,27.3 23.9,26.8 23.8,26.1 C23.7,25.7 23.7,25.1 23.7,24.4 L23.9,18.2 C23.9,18.1 24,18 24,17.9 L25.5,16.9 C25.6,16.8 25.7,16.8 25.8,16.9 C25.9,17 26,17.1 26,17.2 L25.6,21.8 C25.9,21.4 26.1,21.1 26.4,20.8 C27,20.2 27.6,19.9 28.2,19.8 C28.5,19.8 28.7,19.7 29,19.8 C29.3,19.8 29.5,19.9 29.7,20 C29.9,20.1 30.1,20.3 30.2,20.6 C30.3,20.8 30.4,21.1 30.5,21.5 C30.6,22.1 30.5,22.8 30.3,23.5 C30.1,24.2 29.8,24.8 29.4,25.4 C29,26 28.5,26.5 28,26.9 C27.5,27.3 26.9,27.6 26.3,27.7 C26.2,28 26,28 25.9,28 L25.9,28 Z M24.5,18.6 L24.3,24.6 C24.3,25.3 24.3,25.8 24.4,26.1 C24.5,26.6 24.7,26.9 25,27.1 C25.3,27.3 25.7,27.4 26.2,27.3 C26.3,27.3 26.4,27.3 26.5,27.2 C26.1,27.2 25.7,27.1 25.5,26.9 C25.1,26.6 24.9,26.2 24.8,25.8 C24.7,25.5 24.7,25.1 24.7,24.7 L24.7,24.6 C24.8,24.4 24.9,24.1 24.9,23.9 L24.9,23.9 C24.8,23.9 24.7,23.7 24.7,23.6 L25.2,18.1 L24.5,18.6 L24.5,18.6 Z M25.5,24.8 C25.5,25.2 25.5,25.5 25.6,25.8 C25.7,26.1 25.8,26.4 26,26.5 C26.2,26.7 26.5,26.7 26.9,26.7 C27.1,26.7 27.4,26.5 27.6,26.3 C27.9,26.1 28.1,25.8 28.3,25.5 C28.5,25.1 28.6,24.7 28.7,24.2 C28.8,23.7 28.8,23.1 28.7,22.5 C28.6,22.1 28.5,21.9 28.4,21.7 C28.3,21.6 28.2,21.5 28,21.6 C27.8,21.6 27.6,21.7 27.4,21.8 C27.2,21.9 27,22.1 26.8,22.4 C26.6,22.7 26.4,23 26.2,23.4 C25.8,23.8 25.6,24.2 25.5,24.8 L25.5,24.8 Z M28,20.9 C28.3,20.9 28.6,21 28.8,21.3 C29,21.6 29.1,21.9 29.2,22.4 C29.3,23.1 29.3,23.7 29.2,24.3 C29.1,24.6 29.1,24.9 29,25.2 C29.3,24.7 29.5,24.2 29.7,23.6 C29.9,23 29.9,22.4 29.8,21.9 C29.8,21.6 29.7,21.4 29.6,21.2 C29.5,21 29.4,20.9 29.3,20.9 C29.2,20.8 29,20.8 28.9,20.8 L28.3,20.8 C28.1,20.8 27.9,20.9 27.6,21 L27.7,21 C27.9,20.9 27.9,20.9 28,20.9 L28,20.9 Z" id="Shape"></path>
                <path d="M34.1,21 C34.6,19.3 35.3,18.1 36,17.2 C36.7,16.3 37.5,15.8 38.4,15.7 C38.8,15.6 39.1,15.6 39.4,15.7 C39.7,15.8 39.9,15.9 40.1,16.1 C40.3,16.3 40.4,16.5 40.5,16.8 C40.6,17.1 40.7,17.4 40.7,17.7 C40.8,18.2 40.8,18.7 40.7,19.3 C40.7,19.9 40.6,20.5 40.4,21.1 C40.2,21.7 40,22.3 39.8,22.9 C39.5,23.5 39.2,24 38.9,24.5 C38.5,25 38.1,25.4 37.7,25.7 C37.2,26 36.7,26.2 36.2,26.3 L35.5,26.3 C35.2,26.3 34.9,26.2 34.6,26 C34.3,25.8 34,25.5 33.8,25 C33.5,24.6 33.4,23.9 33.2,23.1 C33.1,22.4 33,21.6 33,20.8 L33,17.9 C32.9,17.9 32.7,18 32.4,18.1 C32.2,18.2 31.9,18.2 31.7,18.2 L31.7,17.7 C31.9,17.7 32.1,17.6 32.4,17.6 C32.6,17.5 32.9,17.5 33,17.4 C33.1,15.8 33.4,14.2 33.7,12.7 C34,11.2 34.5,9.8 35,8.6 C35.5,7.4 36.1,6.4 36.8,5.6 C37.5,4.8 38.2,4.3 39,4.2 C39.3,4.1 39.6,4.2 39.9,4.2 C40.1,4.3 40.4,4.4 40.5,4.6 C40.7,4.8 40.8,5 40.9,5.2 C41,5.4 41.1,5.7 41.1,6 C41.2,6.6 41.2,7.3 41.1,8 C41,8.7 40.8,9.4 40.5,10.1 C40.2,10.8 39.8,11.5 39.4,12.2 C39,12.9 38.5,13.6 37.9,14.2 C37.4,14.9 36.8,15.5 36.2,16 C35.6,16.6 35,17.1 34.4,17.5 C34.4,17.8 34.4,18.1 34.3,18.4 L34.3,19.4 L34.3,20.4 C34.1,20.4 34.1,20.7 34.1,21 M34.3,16.7 C35.2,16 36.1,15.2 36.8,14.3 C37.5,13.4 38.2,12.5 38.7,11.5 C39.2,10.5 39.6,9.6 39.8,8.6 C40,7.6 40,6.7 39.9,5.9 C39.8,5.3 39.7,5 39.5,4.7 C39.3,4.5 39,4.4 38.7,4.5 C38.4,4.6 38,4.7 37.7,5 C37.4,5.3 37.1,5.7 36.9,6.2 C36.6,6.7 36.4,7.2 36.2,7.8 C36,8.4 35.8,9.1 35.6,9.7 C35.4,10.4 35.3,11 35.1,11.7 C35,12.4 34.8,13 34.7,13.6 C34.6,14.2 34.5,14.8 34.4,15.3 C34.4,15.9 34.3,16.4 34.3,16.7 M34.6,23.9 C34.6,24.1 34.7,24.4 34.8,24.6 C34.9,24.8 35,25.1 35.1,25.2 C35.2,25.4 35.4,25.5 35.5,25.6 C35.7,25.7 35.9,25.7 36.1,25.7 C36.5,25.6 36.9,25.4 37.2,25.1 C37.5,24.8 37.8,24.4 38.1,24 C38.4,23.5 38.6,23 38.7,22.5 C38.9,21.9 39,21.4 39.1,20.8 C39.2,20.2 39.3,19.7 39.3,19.1 C39.3,18.6 39.3,18.1 39.2,17.7 C39.1,17.2 39,16.8 38.8,16.6 C38.6,16.4 38.3,16.3 37.9,16.4 C37.7,16.4 37.4,16.6 37.1,16.8 C36.8,17 36.5,17.3 36.3,17.7 C36,18.1 35.8,18.5 35.5,18.9 C35.3,19.4 35.1,19.9 34.9,20.4 C34.7,20.9 34.6,21.5 34.6,22.1 C34.5,22.7 34.5,23.3 34.6,23.9" id="Shape"></path>
                <path d="M35.7,26.5 L35.4,26.5 C35.1,26.5 34.7,26.4 34.4,26.1 C34.1,25.9 33.8,25.5 33.5,25 C33.2,24.5 33,23.9 32.9,23 C32.8,22.3 32.7,21.5 32.7,20.7 L32.7,18.2 L32.5,18.2 C32.3,18.3 32,18.3 31.8,18.3 C31.7,18.3 31.6,18.3 31.5,18.2 C31.4,18.1 31.4,18.1 31.4,18 L31.4,17.5 C31.4,17.3 31.5,17.2 31.7,17.2 C31.9,17.2 32.1,17.1 32.4,17.1 C32.5,17.1 32.7,17 32.8,17 C32.9,15.4 33.2,13.9 33.5,12.4 C33.8,10.9 34.3,9.4 34.8,8.2 C35.3,6.9 35.9,5.9 36.6,5.1 C37.3,4.2 38.1,3.7 39,3.6 C39.4,3.5 39.7,3.6 40,3.7 C40.3,3.8 40.6,3.9 40.8,4.1 C41,4.3 41.2,4.5 41.3,4.8 C41.4,5.1 41.5,5.4 41.6,5.6 C41.7,6.3 41.7,6.9 41.6,7.7 C41.5,8.4 41.2,9.1 40.9,9.9 C40.6,10.6 40.2,11.4 39.7,12.1 C39.3,12.8 38.7,13.5 38.2,14.2 C37.7,14.9 37.1,15.5 36.5,16.1 C35.9,16.6 35.3,17.1 34.8,17.5 C34.8,17.7 34.8,18 34.7,18.2 L34.7,19.2 L34.7,19.3 C35.1,18.4 35.6,17.6 36.1,17 C36.9,16.1 37.8,15.5 38.7,15.4 C39.1,15.3 39.5,15.3 39.8,15.4 C40.1,15.5 40.4,15.6 40.6,15.9 C40.8,16.1 41,16.4 41.1,16.7 C41.2,17 41.3,17.3 41.4,17.7 C41.5,18.2 41.5,18.8 41.5,19.4 C41.5,20 41.4,20.6 41.2,21.2 C41,21.8 40.8,22.4 40.6,23 C40.3,23.6 40,24.1 39.6,24.6 C39.2,25.1 38.8,25.5 38.3,25.9 C37.8,26.2 37.3,26.5 36.7,26.6 C36.1,26.5 35.9,26.5 35.7,26.5 L35.7,26.5 Z M33.2,17.5 L33.2,17.5 C33.3,17.6 33.3,17.7 33.3,17.8 C33.2,18.9 33.2,19.8 33.3,20.7 C33.3,21.5 33.4,22.3 33.5,23 C33.6,23.8 33.8,24.4 34,24.8 C34.2,25.2 34.5,25.5 34.7,25.7 C34.8,25.8 35,25.9 35.1,25.9 C34.9,25.8 34.8,25.6 34.7,25.4 C34.6,25.2 34.5,24.9 34.4,24.7 C34.3,24.5 34.3,24.2 34.2,24 C34.1,23.4 34.1,22.8 34.1,22.2 C34.1,21.9 34.2,21.6 34.2,21.3 C34.1,21.4 34,21.4 33.9,21.4 C33.7,21.4 33.6,21.3 33.6,21.1 L33.6,20.2 L33.6,19.2 L33.6,18.2 C33.6,17.9 33.6,17.6 33.7,17.3 C33.7,17.2 33.8,17.1 33.8,17.1 C33.8,17.1 33.9,17.1 33.9,17 L33.9,17 C33.8,16.9 33.7,16.8 33.7,16.7 C33.7,16.4 33.8,15.9 33.8,15.4 C33.9,14.9 34,14.3 34.1,13.7 C34.2,13.1 34.3,12.4 34.5,11.7 C34.6,11 34.8,10.3 35,9.7 C35.2,9 35.4,8.4 35.6,7.7 C35.8,7.2 36,6.7 36.2,6.2 C35.8,6.8 35.4,7.6 35,8.4 C34.5,9.6 34.1,11 33.8,12.5 C33.5,14 33.2,15.6 33.1,17.2 C33.3,17.4 33.3,17.5 33.2,17.5 L33.2,17.5 L33.2,17.5 Z M38.1,16.7 L37.9,16.7 C37.7,16.7 37.5,16.8 37.2,17 C36.9,17.2 36.7,17.5 36.4,17.8 C36.1,18.1 35.9,18.5 35.6,19 C35.4,19.5 35.2,19.9 35,20.5 C34.8,21 34.7,21.6 34.7,22.1 C34.6,22.6 34.7,23.2 34.8,23.7 C34.8,23.9 34.9,24.1 34.9,24.4 C35,24.6 35,24.8 35.1,25 C35.2,25.1 35.3,25.3 35.4,25.3 C35.5,25.4 35.6,25.4 35.8,25.4 C36.1,25.3 36.5,25.2 36.7,24.9 C37,24.6 37.3,24.3 37.5,23.8 C37.7,23.4 37.9,22.9 38.1,22.3 C38.3,21.8 38.4,21.2 38.5,20.7 C38.6,20.1 38.7,19.6 38.7,19.1 C38.7,18.6 38.7,18.1 38.6,17.8 C38.5,17.2 38.4,17 38.2,16.8 C38.4,16.8 38.3,16.7 38.1,16.7 L38.1,16.7 Z M38.1,16.1 C38.4,16.1 38.7,16.2 39,16.4 C39.3,16.7 39.4,17.1 39.5,17.7 C39.6,18.1 39.6,18.6 39.6,19.2 C39.6,19.7 39.5,20.3 39.4,20.9 C39.3,21.5 39.2,22.1 39,22.6 C38.8,23.2 38.6,23.7 38.3,24.2 C38.1,24.6 37.9,24.9 37.6,25.2 C38,24.9 38.3,24.6 38.6,24.2 C38.9,23.8 39.2,23.2 39.5,22.7 C39.8,22.1 40,21.6 40.1,21 C40.2,20.4 40.3,19.8 40.4,19.3 L40.4,17.8 C40.3,17.5 40.3,17.2 40.2,16.9 C40.1,16.7 40,16.5 39.8,16.3 C39.7,16.2 39.5,16.1 39.3,16 C39.1,15.9 38.8,15.9 38.5,16 C38.3,16 38.2,16.1 38,16.1 C38,16.1 38.1,16.1 38.1,16.1 L38.1,16.1 Z M38.8,4.8 L38.6,4.8 C38.3,4.8 38.1,5 37.8,5.3 C37.5,5.6 37.3,6 37,6.4 C36.8,6.9 36.5,7.4 36.3,8 C36.1,8.6 35.9,9.2 35.7,9.9 C35.5,10.6 35.4,11.2 35.2,11.9 C35.1,12.6 34.9,13.2 34.8,13.8 C34.7,14.4 34.6,15 34.5,15.5 C34.5,15.7 34.5,15.8 34.4,16 C35.1,15.4 35.7,14.8 36.3,14.1 C37,13.2 37.6,12.3 38.1,11.3 C38.6,10.4 38.9,9.4 39.1,8.5 C39.3,7.6 39.3,6.7 39.2,5.9 C39.1,5.3 39,5 38.9,4.9 C39.2,4.8 39.1,4.8 38.8,4.8 L38.8,4.8 Z M39.3,4.2 C39.4,4.3 39.6,4.4 39.7,4.5 C39.9,4.8 40.1,5.2 40.2,5.8 C40.3,6.7 40.3,7.6 40.1,8.6 C39.9,9.6 39.5,10.6 39,11.6 C38.8,12.1 38.5,12.5 38.2,13 C38.5,12.6 38.8,12.2 39.1,11.8 C39.5,11.1 39.9,10.4 40.2,9.7 C40.5,9 40.7,8.3 40.8,7.7 C40.9,7 40.9,6.4 40.8,5.8 C40.8,5.6 40.7,5.3 40.6,5.1 C40.5,4.9 40.4,4.7 40.2,4.6 C40.1,4.5 39.9,4.4 39.7,4.3 C39.6,4.3 39.5,4.2 39.3,4.2 L39.3,4.2 Z" id="Shape"></path>
                <path d="M42.8,21.4 C42.6,20.4 42.7,19.3 43.1,18.2 C43.5,17.1 44.1,16.2 44.8,15.4 C45.6,14.6 46.4,14.2 47.3,14 C48.2,13.8 49.1,14 49.7,14.6 C50.4,15.1 50.8,15.9 51,16.9 C51.2,18 51.1,19.1 50.7,20.2 C50.3,21.3 49.8,22.2 49,23 C48.2,23.8 47.4,24.3 46.5,24.4 C45.5,24.6 44.7,24.4 44,23.8 C43.4,23.3 42.9,22.5 42.8,21.4 M49.4,16.5 C49.3,15.8 49,15.3 48.6,14.9 C48.2,14.5 47.7,14.4 47.2,14.4 C46.7,14.5 46.3,14.7 45.9,15.1 C45.5,15.5 45.2,16 44.9,16.6 C44.6,17.3 44.4,18.2 44.3,19.1 C44.2,20 44.2,20.9 44.3,21.6 C44.4,22.4 44.7,23 45.1,23.4 C45.5,23.8 46,23.9 46.6,23.8 C47.6,23.6 48.3,22.8 48.8,21.3 C49.1,20.5 49.2,19.7 49.3,18.8 C49.5,18.1 49.5,17.3 49.4,16.5" id="Shape"></path>
                <path d="M45.9,24.8 C45.1,24.8 44.4,24.6 43.8,24.1 C43,23.5 42.6,22.6 42.4,21.5 C42.2,20.4 42.3,19.3 42.7,18.2 C43.1,17.1 43.7,16.1 44.5,15.3 C45.3,14.5 46.2,14 47.2,13.8 C48.2,13.6 49.1,13.8 49.9,14.4 C50.6,15 51.1,15.8 51.3,16.9 C51.5,18 51.4,19.2 51,20.3 C50.6,21.4 50,22.4 49.2,23.3 C48.4,24.1 47.5,24.6 46.5,24.8 L45.9,24.8 L45.9,24.8 Z M45.3,15.4 C45.2,15.5 45.1,15.6 45,15.7 C44.3,16.4 43.7,17.3 43.4,18.4 C43,19.4 42.9,20.5 43.1,21.4 C43.3,22.4 43.7,23.1 44.3,23.6 C44.7,23.9 45.1,24.1 45.5,24.1 C45.3,24 45.1,23.9 45,23.7 C44.6,23.3 44.3,22.6 44.1,21.7 C44,21 44,20.1 44.1,19.1 C44.2,18.1 44.4,17.3 44.7,16.5 C44.9,16.1 45.1,15.7 45.3,15.4 L45.3,15.4 Z M47.5,14.8 L47.3,14.8 C46.9,14.9 46.5,15.1 46.2,15.4 C45.9,15.7 45.5,16.2 45.3,16.8 C45,17.5 44.8,18.3 44.7,19.2 C44.6,20.1 44.6,20.9 44.7,21.6 C44.8,22.4 45.1,22.9 45.4,23.3 C45.7,23.6 46.1,23.7 46.6,23.7 C47.5,23.6 48.1,22.8 48.6,21.4 C48.9,20.7 49,19.9 49.1,19 C49.2,18.1 49.2,17.3 49,16.6 C48.9,16 48.7,15.5 48.3,15.2 C48.1,14.9 47.8,14.8 47.5,14.8 L47.5,14.8 Z M48.4,14.4 C48.6,14.5 48.7,14.6 48.8,14.7 C49.3,15.1 49.5,15.7 49.7,16.5 C49.8,17.3 49.8,18.1 49.8,19.1 C49.7,20 49.5,20.9 49.3,21.7 C49.1,22.3 48.8,22.8 48.5,23.2 C48.6,23.1 48.7,23 48.8,22.9 C49.5,22.1 50.1,21.2 50.4,20.2 C50.8,19.2 50.8,18.1 50.7,17.1 C50.6,16.2 50.2,15.5 49.6,15 C49.2,14.6 48.8,14.5 48.4,14.4 L48.4,14.4 Z" id="Shape"></path>
                <path d="M55,17.6 C55.5,16 56.2,14.7 56.9,13.8 C57.6,12.9 58.4,12.4 59.3,12.3 C59.7,12.2 60,12.2 60.3,12.3 C60.6,12.4 60.8,12.5 61,12.7 C61.2,12.9 61.3,13.1 61.4,13.4 C61.5,13.7 61.6,14 61.6,14.3 C61.7,14.8 61.7,15.3 61.7,15.9 C61.7,16.5 61.6,17.1 61.4,17.7 C61.2,18.3 61,18.9 60.8,19.5 C60.5,20.1 60.2,20.6 59.9,21.1 C59.5,21.6 59.1,22 58.7,22.3 C58.2,22.6 57.7,22.8 57.2,22.9 L56.5,22.9 C56.2,22.9 55.9,22.8 55.6,22.6 C55.3,22.4 55,22.1 54.8,21.6 C54.5,21.2 54.4,20.5 54.2,19.7 C54.1,19 54,18.2 54,17.4 L54,14.5 C53.9,14.5 53.7,14.6 53.4,14.7 C53.2,14.8 52.9,14.8 52.7,14.8 L52.7,14.3 C52.9,14.3 53.1,14.2 53.4,14.2 C53.7,14.1 53.9,14.1 54,14 C54.1,12.4 54.4,10.8 54.7,9.3 C55,7.8 55.5,6.4 56,5.2 C56.5,4 57.1,3 57.8,2.2 C58.5,1.4 59.2,0.9 60,0.8 C60.3,0.7 60.6,0.8 60.9,0.8 C61.1,0.9 61.4,1 61.5,1.2 C61.7,1.4 61.8,1.6 61.9,1.8 C62,2 62.1,2.3 62.1,2.6 C62.2,3.2 62.2,3.9 62.1,4.6 C62,5.3 61.8,6 61.5,6.7 C61.2,7.4 60.8,8.1 60.4,8.8 C60,9.5 59.5,10.2 58.9,10.8 C58.4,11.5 57.8,12.1 57.2,12.6 C56.6,13.2 56,13.7 55.4,14.1 C55.4,14.4 55.4,14.7 55.3,15 L55.3,16 L55.3,17 C55,17 55,17.3 55,17.6 M55.2,13.2 C56.1,12.5 57,11.7 57.7,10.8 C58.4,9.9 59.1,9 59.6,8 C60.1,7 60.5,6.1 60.7,5.1 C60.9,4.1 60.9,3.2 60.8,2.4 C60.7,1.8 60.6,1.5 60.4,1.2 C60.2,1 59.9,0.9 59.6,1 C59.3,1.1 58.9,1.2 58.6,1.5 C58.3,1.8 58,2.2 57.8,2.7 C57.5,3.2 57.3,3.7 57.1,4.3 C56.9,4.9 56.7,5.6 56.5,6.2 C56.3,6.9 56.2,7.5 56,8.2 C55.9,8.9 55.7,9.5 55.6,10.1 C55.5,10.7 55.4,11.3 55.3,11.8 C55.3,12.5 55.2,12.9 55.2,13.2 M55.5,20.4 C55.5,20.6 55.6,20.9 55.7,21.1 C55.8,21.3 55.9,21.6 56,21.7 C56.1,21.9 56.3,22 56.4,22.1 C56.6,22.2 56.8,22.2 57,22.2 C57.4,22.1 57.8,21.9 58.1,21.6 C58.4,21.3 58.7,20.9 59,20.5 C59.3,20 59.5,19.5 59.6,19 C59.8,18.4 59.9,17.9 60,17.3 C60.1,16.7 60.2,16.2 60.2,15.6 C60.2,15.1 60.2,14.6 60.1,14.2 C60,13.7 59.9,13.3 59.7,13.1 C59.5,12.9 59.2,12.8 58.8,12.9 C58.6,12.9 58.3,13.1 58,13.3 C57.7,13.5 57.4,13.8 57.2,14.2 C56.9,14.6 56.7,15 56.4,15.4 C56.2,15.9 55.9,16.4 55.8,16.9 C55.6,17.4 55.5,18 55.5,18.6 C55.4,19.3 55.4,19.9 55.5,20.4" id="Shape"></path>
                <path d="M56.6,23.1 L56.3,23.1 C56,23.1 55.6,23 55.3,22.7 C55,22.5 54.7,22.1 54.4,21.6 C54.1,21.1 53.9,20.4 53.8,19.6 C53.7,18.9 53.6,18.1 53.6,17.3 L53.6,14.8 L53.4,14.8 C53.2,14.9 52.9,14.9 52.7,14.9 C52.6,14.9 52.5,14.9 52.4,14.8 C52.3,14.7 52.3,14.7 52.3,14.6 L52.3,14.1 C52.3,13.9 52.4,13.8 52.6,13.8 C52.8,13.8 53,13.7 53.3,13.7 C53.4,13.7 53.6,13.6 53.7,13.6 C53.8,12 54.1,10.5 54.4,9 C54.7,7.5 55.2,6 55.7,4.8 C56.2,3.5 56.8,2.5 57.5,1.7 C58.2,0.8 59,0.3 59.9,0.2 C60.3,0.1 60.6,0.2 60.9,0.2 C61.2,0.3 61.5,0.4 61.7,0.6 C61.9,0.8 62.1,1 62.2,1.3 C62.3,1.6 62.4,1.9 62.5,2.1 C62.6,2.8 62.6,3.4 62.5,4.2 C62.4,4.9 62.2,5.6 61.8,6.4 C61.5,7.1 61.1,7.8 60.6,8.6 C60.2,9.3 59.6,10 59.1,10.7 C58.6,11.4 58,12 57.4,12.6 C56.8,13.1 56.2,13.6 55.7,14 L55.7,14.7 C55.7,15 55.7,15.3 55.6,15.7 L55.6,15.8 C56,14.9 56.5,14.1 57,13.5 C57.8,12.6 58.7,12 59.6,11.9 C60,11.8 60.4,11.8 60.7,11.9 C61,12 61.3,12.1 61.5,12.4 C61.7,12.6 61.9,12.9 62,13.2 C62.1,13.5 62.2,13.8 62.3,14.2 C62.4,14.7 62.4,15.3 62.4,15.9 C62.4,16.5 62.2,17.1 62.1,17.7 C61.9,18.3 61.7,18.9 61.5,19.5 C61.2,20.1 60.9,20.6 60.5,21.1 C60.1,21.6 59.7,22 59.2,22.4 C58.7,22.8 58.1,23 57.6,23.1 C57,23.1 56.8,23.1 56.6,23.1 L56.6,23.1 Z M54.1,14.1 L54.1,14.1 C54.2,14.2 54.2,14.3 54.2,14.4 C54.1,15.5 54.1,16.4 54.2,17.3 C54.2,18.1 54.3,18.9 54.4,19.6 C54.5,20.4 54.7,21 54.9,21.4 C55.1,21.8 55.4,22.1 55.6,22.3 C55.8,22.4 55.9,22.5 56,22.5 C55.8,22.4 55.7,22.2 55.6,22 C55.5,21.8 55.4,21.5 55.3,21.3 C55.2,21.1 55.2,20.8 55.1,20.6 C55,20 55,19.4 55,18.8 C55,18.5 55.1,18.2 55.1,17.9 C55,18 54.9,18 54.8,18 C54.6,18 54.5,17.9 54.5,17.7 L54.5,16.8 L54.5,15.8 L54.5,14.8 C54.5,14.5 54.5,14.2 54.6,13.9 C54.6,13.8 54.7,13.7 54.7,13.7 C54.7,13.7 54.8,13.7 54.8,13.6 L54.8,13.6 C54.7,13.5 54.6,13.4 54.6,13.3 C54.6,13 54.7,12.5 54.7,12 C54.8,11.5 54.9,10.9 55,10.3 C55.1,9.7 55.2,9 55.4,8.3 C55.5,7.6 55.7,6.9 55.9,6.3 C56.1,5.6 56.3,5 56.5,4.3 C56.7,3.8 56.9,3.3 57.1,2.8 C56.7,3.4 56.3,4.2 55.9,5 C55.4,6.2 55,7.6 54.7,9.1 C54.4,10.6 54.1,12.2 54,13.8 C54.2,14 54.2,14 54.1,14.1 L54.1,14.1 L54.1,14.1 Z M59,13.3 L58.8,13.3 C58.6,13.3 58.4,13.4 58.1,13.6 C57.8,13.8 57.6,14.1 57.3,14.4 C57,14.7 56.8,15.1 56.5,15.6 C56.3,16.1 56.1,16.5 55.9,17.1 C55.7,17.6 55.6,18.2 55.6,18.7 C55.5,19.2 55.6,19.8 55.7,20.3 C55.7,20.5 55.8,20.7 55.8,21 C55.9,21.2 55.9,21.4 56,21.6 C56.1,21.7 56.2,21.9 56.3,21.9 C56.4,22 56.5,22 56.7,22 C57,21.9 57.4,21.8 57.6,21.5 C57.9,21.2 58.2,20.9 58.4,20.4 C58.6,20 58.9,19.5 59,18.9 C59.2,18.4 59.3,17.8 59.4,17.3 C59.5,16.7 59.5,16.2 59.6,15.7 C59.6,15.2 59.6,14.7 59.5,14.4 C59.4,13.8 59.3,13.6 59.1,13.4 C59.3,13.3 59.2,13.3 59,13.3 L59,13.3 Z M59,12.7 C59.3,12.7 59.6,12.8 59.9,13 C60.2,13.3 60.3,13.7 60.4,14.3 C60.5,14.7 60.5,15.2 60.5,15.8 C60.5,16.3 60.4,16.9 60.3,17.5 C60.2,18.1 60.1,18.7 59.9,19.2 C59.7,19.8 59.5,20.3 59.2,20.8 C59,21.2 58.8,21.5 58.5,21.8 C58.9,21.5 59.2,21.2 59.5,20.8 C59.8,20.4 60.1,19.8 60.4,19.3 C60.7,18.7 60.9,18.2 61,17.6 C61.2,17 61.2,16.4 61.3,15.9 L61.3,14.4 C61.2,14.1 61.2,13.8 61.1,13.5 C61,13.3 60.9,13.1 60.7,12.9 C60.6,12.8 60.4,12.7 60.2,12.6 C60,12.5 59.7,12.5 59.4,12.6 C59.2,12.6 59.1,12.7 58.9,12.7 L59,12.7 L59,12.7 Z M59.8,1.3 L59.6,1.3 C59.3,1.3 59.1,1.5 58.8,1.8 C58.5,2.1 58.3,2.5 58,2.9 C57.8,3.4 57.5,3.9 57.3,4.5 C57.1,5.1 56.9,5.7 56.7,6.4 C56.5,7.1 56.4,7.7 56.2,8.4 C56.1,9.1 55.9,9.7 55.8,10.3 C55.7,10.9 55.6,11.5 55.5,12 C55.5,12.2 55.5,12.3 55.4,12.5 C56.1,11.9 56.7,11.3 57.3,10.6 C58,9.7 58.6,8.8 59.1,7.8 C59.6,6.9 59.9,5.9 60.1,5 C60.3,4.1 60.3,3.2 60.2,2.4 C60.1,1.8 60,1.5 59.9,1.4 C60.1,1.4 60,1.3 59.8,1.3 L59.8,1.3 Z M60.2,0.8 C60.3,0.9 60.5,1 60.6,1.1 C60.8,1.4 61,1.8 61.1,2.4 C61.2,3.3 61.2,4.2 61,5.2 C60.8,6.2 60.4,7.2 59.9,8.2 C59.7,8.7 59.4,9.1 59.1,9.6 C59.4,9.2 59.7,8.8 60,8.4 C60.4,7.7 60.8,7 61.1,6.3 C61.4,5.6 61.6,4.9 61.7,4.3 C61.8,3.6 61.8,3 61.7,2.4 C61.7,2.2 61.6,1.9 61.5,1.7 C61.4,1.5 61.3,1.3 61.1,1.2 C61,1.1 60.8,1 60.6,0.9 C60.5,0.8 60.4,0.8 60.2,0.8 L60.2,0.8 Z" id="Shape"></path>
                <path d="M72.1,9.7 L71.5,16.1 C71.4,16.8 71.4,17.3 71.5,17.7 C71.6,18 71.7,18.3 71.9,18.5 C72.1,18.7 72.3,18.8 72.5,18.8 C72.8,18.7 73.3,18.3 73.9,17.3 L74.2,17.5 L74.1,17.8 C73.6,18.6 73.2,19.1 73,19.5 C72.7,19.8 72.5,20 72.2,20.1 C71.8,20.2 71.5,20 71.2,19.7 C70.9,19.4 70.7,19 70.6,18.5 C70.5,18.1 70.5,17.3 70.6,16 L70.6,15.3 C70.3,16.3 69.9,17.4 69.4,18.4 C68.5,20.1 67.5,21 66.4,21.2 C65.8,21.3 65.2,21.2 64.8,20.8 C64.4,20.4 64.1,19.8 63.9,19 C63.7,17.9 63.8,16.8 64.3,15.5 C64.7,14.2 65.3,13.2 66.1,12.3 C66.9,11.4 67.7,10.9 68.5,10.7 C69.4,10.6 70.1,10.8 70.7,11.4 L70.8,10.7 L72.1,9.7 L72.1,9.7 Z M70.5,12.2 C70.3,11.8 70,11.5 69.7,11.3 C69.3,11.1 68.9,11.1 68.5,11.1 C68,11.2 67.5,11.5 67,12 C66.5,12.5 66.1,13.3 65.8,14.2 C65.5,14.9 65.4,15.7 65.2,16.5 C65.1,17.3 65.1,18 65.2,18.5 C65.3,19.1 65.5,19.5 65.8,19.8 C66.1,20.1 66.4,20.2 66.8,20.1 C67.3,20 67.8,19.7 68.3,19.1 C68.8,18.5 69.2,17.7 69.6,16.7 C69.9,16.1 70,15.6 70.1,15 C70.2,14.5 70.3,13.7 70.4,12.7 L70.5,12.2 L70.5,12.2 Z" id="Shape"></path>
                <path d="M65.9,21.5 C65.3,21.5 64.9,21.3 64.4,20.9 C63.9,20.5 63.6,19.8 63.4,18.9 C63.2,17.8 63.3,16.6 63.8,15.3 C64.2,14 64.8,12.9 65.6,12 C66.4,11 67.3,10.5 68.2,10.3 C69,10.2 69.6,10.3 70.2,10.6 L70.2,10.5 C70.2,10.4 70.3,10.3 70.3,10.3 L71.8,9.4 C71.9,9.3 72,9.3 72.1,9.4 C72.2,9.5 72.3,9.6 72.2,9.7 L71.6,16.1 C71.5,16.8 71.5,17.3 71.6,17.6 C71.6,17.9 71.7,18.1 71.9,18.3 C72,18.4 72.1,18.5 72.2,18.5 C72.3,18.5 72.6,18.4 73.4,17.2 C73.4,17.1 73.5,17.1 73.6,17.1 C73.7,17.1 73.8,17.1 73.8,17.2 L74.1,17.4 C74.2,17.5 74.3,17.7 74.2,17.8 L74.1,18.1 C73.6,18.9 73.2,19.5 72.9,19.8 C72.6,20.2 72.3,20.4 71.9,20.5 C71.4,20.6 71,20.4 70.6,20 C70.2,19.6 70,19.1 69.9,18.6 C69.9,18.4 69.8,18 69.9,17.5 C69.7,17.9 69.6,18.2 69.4,18.6 C68.4,20.4 67.3,21.3 66.2,21.5 C66.2,21.5 66.1,21.5 65.9,21.5 L65.9,21.5 Z M67,11.6 C66.7,11.8 66.5,12.1 66.2,12.4 C65.5,13.3 64.9,14.3 64.5,15.5 C64.1,16.7 64,17.8 64.2,18.8 C64.3,19.5 64.6,20 65,20.4 C65.4,20.7 65.8,20.9 66.4,20.8 C66.8,20.7 67.2,20.5 67.6,20.2 C67.4,20.3 67.2,20.4 66.9,20.4 C66.4,20.5 65.9,20.3 65.6,20 C65.3,19.7 65.1,19.2 65,18.5 C64.9,18 64.9,17.3 65,16.4 C65.1,15.6 65.3,14.8 65.6,14.1 C65.9,13.2 66.4,12.4 66.9,11.9 C66.9,11.8 66.9,11.7 67,11.6 L67,11.6 Z M70.5,15 L70.5,15 C70.7,15 70.8,15.2 70.8,15.3 L70.8,16 C70.7,17.6 70.8,18.2 70.8,18.5 C70.9,18.9 71,19.3 71.3,19.6 C71.6,19.9 71.8,20 72.1,19.9 C72.2,19.9 72.4,19.8 72.7,19.5 C72.8,19.4 72.8,19.3 72.9,19.2 C72.8,19.3 72.7,19.3 72.6,19.3 C72.3,19.4 72,19.2 71.7,18.9 C71.5,18.6 71.3,18.3 71.3,17.9 C71.2,17.5 71.2,16.9 71.3,16.2 L71.8,10.4 L71,10.9 L70.9,11.4 C70.9,11.5 70.8,11.6 70.7,11.7 L70.6,11.7 C70.7,11.8 70.8,12 70.9,12.1 L70.9,12.3 L70.8,12.9 C70.7,13.7 70.6,14.4 70.5,15 L70.5,15 L70.5,15 Z M68.8,11.4 L68.5,11.4 C68.1,11.5 67.7,11.8 67.2,12.2 C66.7,12.7 66.4,13.4 66,14.3 C65.8,15 65.6,15.7 65.5,16.5 C65.4,17.3 65.4,17.9 65.5,18.4 C65.6,18.9 65.7,19.3 66,19.5 C66.2,19.7 66.4,19.8 66.7,19.7 C67.1,19.6 67.6,19.3 68,18.8 C68.5,18.3 68.9,17.5 69.3,16.5 C69.5,15.9 69.7,15.4 69.8,14.9 C69.9,14.4 70,13.6 70.1,12.7 L70.1,12.2 C69.9,11.9 69.7,11.7 69.4,11.5 C69.3,11.5 69.1,11.4 68.8,11.4 L68.8,11.4 Z" id="Shape"></path>
            </g>
            <text id="4-дні-на-вулицях" sketch:type="MSTextLayer" font-family="Helvetica" font-size="9.2409" font-weight="normal">
                <tspan x="20.6799" y="9.9679" fill="#000000">4 дні на вулицях</tspan>
            </text>
        </g>
    </g>
</svg>